# xmcd database file
#
# Track frame offsets:
# 150
# 14647
# 28750
# 45507
# 55022
# 71195
# 83175
# 100985
# 111222
# 124212
# 138945
# 152800
#
# Disc length: 2270 seconds
#
# Revision: 2
# Processed by: cddbd v1.5.2PL0 Copyright (c) Steve Scherf et al.
# Submitted via: CD-Runner 2007.02
#
DISCID=a408dc0c
DTITLE=Various Artist - Seasons Greetings From Nashville
DYEAR=1994
DGENRE=Country
TTITLE0=Gene Autry - Rudolph The Red Nosed Reindeer
TTITLE1=Marty Robbins - Hark! The Herald Angels Sing
TTITLE2=Willie Nelson - Silent Night, Holy Night
TTITLE3=Johnny Cash - Joy To The World
TTITLE4=B.J. Thomas - The First Noel
TTITLE5=Chet Atkins, G.C.P. - Let It Snow, Let It Snow, Let It Snow
TTITLE6=Ray Price - The Little Drummer Boy
TTITLE7=Merle Haggard - Santa Claus Is Comin' To Town
TTITLE8=John Conlee - Pretty Paper
TTITLE9=Mickey Gilley - I'll Be Home For Christmas
TTITLE10=Mike Reid - O Come, O Come Emmanuel
TTITLE11=Larry Gatlin and The Gatlin Bros Band - Messiah/Alleluia Chrs
EXTD=
EXTT0=
EXTT1=
EXTT2=
EXTT3=
EXTT4=
EXTT5=
EXTT6=
EXTT7=
EXTT8=
EXTT9=
EXTT10=
EXTT11=
PLAYORDER=
